HIERARCHY
ROOT hip
{
	OFFSET 0.000000 0.000000 0.000000 
	CHANNELS 6 Xposition Yposition Zposition Xrotation Zrotation Yrotation
	JOINT abdomen
	{
		OFFSET 0.000000 3.402643 0.000000 
		CHANNELS 3 Xrotation Zrotation Yrotation
		JOINT chest
		{
			OFFSET 0.000000 8.438565 -0.680529 
			CHANNELS 3 Xrotation Zrotation Yrotation
			JOINT neck
			{
				OFFSET 0.000000 10.207942 -0.272212 
				CHANNELS 3 Xrotation Zrotation Yrotation
				JOINT head
				{
					OFFSET 0.000000 3.130431 0.000000 
					CHANNELS 3 Xrotation Zrotation Yrotation
					End Site
					{
						OFFSET 0.000000 3.130435 0.000000 
					}
				}
			}
			JOINT lCollar
			{
				OFFSET 3.470700 6.669187 -0.816635 
				CHANNELS 3 Yrotation Zrotation Xrotation
				JOINT lShldr
				{
					OFFSET 3.198488 0.000000 0.000000 
					CHANNELS 3 Zrotation Yrotation Xrotation
					JOINT lForeArm
					{
						OFFSET 10.139888 0.000000 0.000000 
						CHANNELS 3 Yrotation Zrotation Xrotation
						JOINT lHand
						{
							OFFSET 8.370511 0.000000 0.000000 
							CHANNELS 3 Zrotation Yrotation Xrotation
							End Site
							{
								OFFSET 4.083176 0.000000 0.000000 
							}
						}
					}
				}
			}
			JOINT rCollar
			{
				OFFSET -3.470700 6.669187 -0.816635 
				CHANNELS 3 Yrotation Zrotation Xrotation
				JOINT rShldr
				{
					OFFSET -3.198488 0.000000 0.000000 
					CHANNELS 3 Zrotation Yrotation Xrotation
					JOINT rForeArm
					{
						OFFSET -10.139888 0.000000 0.000000 
						CHANNELS 3 Yrotation Zrotation Xrotation
						JOINT rHand
						{
							OFFSET -8.370511 0.000000 0.000000 
							CHANNELS 3 Zrotation Yrotation Xrotation
							End Site
							{
								OFFSET -4.083176 0.000000 0.000000 
							}
						}
					}
				}
			}
		}
	}
	JOINT lThigh
	{
		OFFSET 5.308129 -1.633274 1.361059 
		CHANNELS 3 Xrotation Zrotation Yrotation
		JOINT lShin
		{
			OFFSET -2.041588 -20.007561 0.000000 
			CHANNELS 3 Xrotation Zrotation Yrotation
			JOINT lFoot
			{
				OFFSET 0.000000 -19.190928 -1.224953 
				CHANNELS 3 Xrotation Yrotation Zrotation
				End Site
				{
					OFFSET 0.000000 -2.449906 4.627600 
				}
			}
		}
	}
	JOINT rThigh
	{
		OFFSET -5.308129 -1.633274 1.361059 
		CHANNELS 3 Xrotation Zrotation Yrotation
		JOINT rShin
		{
			OFFSET 2.041588 -20.007561 0.000000 
			CHANNELS 3 Xrotation Zrotation Yrotation
			JOINT rFoot
			{
				OFFSET 0.000000 -19.190928 -1.224953 
				CHANNELS 3 Xrotation Yrotation Zrotation
				End Site
				{
					OFFSET 0.000000 -2.449906 4.627600 
				}
			}
		}
	}
}
MOTION
Frames: 13
Frame Time: 0.016667
-5.802590 44.906494 98.748131 3.345433 -14.263756 35.228512 20.634769 0.027417 -0.233811 -22.799482 2.106777 0.345393 -5.511321 -2.041309 -8.377424 16.196148 3.095010 -4.228234 1.993417 -2.013218 -0.007815 -68.517342 11.203272 26.510458 -58.371471 0.989364 6.132667 13.398438 0.000000 2.529297 -2.003164 1.994041 -0.018257 38.332672 6.050678 -18.740316 124.339233 -3.214559 3.019086 -3.871006 0.595158 2.451344 -44.134453 23.131920 -3.050478 53.830685 -2.338011 -3.365155 -2.968696 -0.016748 -0.006851 -6.901033 -20.101719 8.263414 35.492859 3.187115 2.449863 -0.487737 0.021555 0.008278 
-4.398125 45.840672 98.881546 2.503501 -13.756888 42.342270 20.634806 -0.109669 -0.422176 -22.933071 2.491551 0.264790 -5.394360 -2.129209 -8.842096 16.206669 3.141745 -4.477768 1.993417 -2.013218 -0.007815 -69.112053 9.369015 26.970417 -59.480000 0.986616 6.116408 13.398438 0.000000 2.529297 -2.003164 1.994041 -0.018257 42.779324 7.287183 -31.345428 123.626709 -3.219366 2.992450 -3.871006 0.595158 2.451344 -42.542511 17.937191 -5.883435 50.599697 -2.476319 -3.255378 -2.978484 -0.012898 -0.005278 -10.487515 -18.602888 8.428463 47.976768 2.570752 3.108938 -0.487797 0.023842 -0.001305 
-3.159249 46.738564 99.159569 1.683544 -12.963342 48.673637 20.742796 -0.429234 -0.553252 -23.143581 2.757161 0.248318 -5.151172 -2.441284 -9.077067 16.254379 3.065965 -4.623888 1.993417 -2.013218 -0.007815 -69.376770 7.837382 27.218533 -60.343159 0.985426 6.112727 13.398438 0.000000 2.529297 -2.003164 1.994041 -0.018257 48.229015 8.845398 -37.672215 122.983414 -3.236857 2.980603 -3.871006 0.595158 2.451344 -40.045353 14.413007 -6.952027 47.218872 -2.661779 -3.131820 -2.978420 -0.018774 -0.018231 -15.105991 -16.541901 7.901615 60.757908 1.817483 3.559665 -0.477526 0.032253 0.001922 
-1.930572 47.566441 99.591240 1.048682 -12.097641 54.544563 20.890722 -0.784641 -0.817152 -23.263927 2.898294 0.180580 -4.536394 -2.725822 -9.090700 16.448063 2.941144 -4.649358 1.993417 -2.013218 -0.007815 -69.636330 6.424038 27.079136 -60.412041 0.986594 6.109084 13.398438 0.000000 2.529297 -2.003164 1.994041 -0.018257 53.784760 10.330152 -39.179878 121.002960 -3.259225 2.922071 -3.871006 0.595158 2.451344 -37.332230 11.981770 -6.922705 43.993778 -2.847405 -2.944456 -2.968674 -0.016342 -0.017233 -20.247349 -14.254328 6.210412 72.155182 1.055138 3.894802 -0.478039 0.030325 -0.019741 
-0.607543 48.227039 100.089966 0.617603 -11.376309 60.306404 20.892532 -1.076597 -1.104391 -23.353294 2.959140 0.110017 -3.676635 -2.913923 -9.178316 16.730606 2.871353 -4.693563 1.993417 -2.013218 -0.007815 -70.305092 4.876579 26.980740 -59.656895 0.994519 6.126409 13.398438 0.000000 2.529297 -2.003164 1.994041 -0.018257 58.832512 10.056018 -38.248268 118.504684 -3.307259 2.835744 -3.871006 0.595158 2.451344 -34.854336 9.871548 -6.926353 41.177746 -2.980671 -2.800516 -2.968726 -0.011205 -0.004584 -25.888149 -12.314167 3.178604 81.708054 0.400789 4.047917 -0.478202 -0.016188 -0.006215 
0.828805 48.656292 100.615677 0.367714 -10.693145 65.868645 20.835196 -1.241304 -1.351359 -23.463705 3.082156 0.020830 -2.875100 -3.023540 -9.428511 17.014133 2.867054 -4.825872 1.993417 -2.013218 -0.007815 -71.620804 3.499729 26.694916 -58.665623 0.988029 6.130778 13.398438 0.000000 2.529297 -2.003164 1.994041 -0.018257 63.050884 6.809321 -32.808311 116.962715 -3.329710 2.784621 -3.871006 0.595158 2.451344 -32.789761 7.812079 -7.407678 39.174351 -3.068301 -2.705850 -2.958969 -0.001265 -0.021613 -31.714724 -10.780684 0.056910 88.859398 -0.087617 4.051844 -0.488217 -0.010431 0.006456 
2.321808 48.831524 101.164436 0.317002 -9.667823 71.068924 20.924639 -1.413889 -1.712489 -23.466478 3.198611 -0.117520 -2.210113 -3.025096 -9.658861 17.200619 2.910844 -4.938890 1.993417 -2.013218 -0.007815 -72.989822 2.957731 26.033451 -58.244194 0.989522 6.127287 13.398438 0.000000 2.529297 -2.003164 1.994041 -0.018257 65.778481 2.351517 -23.223713 115.362167 -3.341634 2.736101 -3.871006 0.595158 2.451344 -30.844889 5.575573 -8.152412 38.339363 -3.111087 -2.649865 -2.958755 -0.037861 -0.004937 -37.298595 -9.451773 -2.005103 93.298088 -0.380607 4.030769 -0.487544 -0.025078 -0.009631 
3.829740 48.788219 101.748688 0.434378 -8.427496 75.921921 21.150578 -1.539268 -2.148204 -23.414124 3.450956 -0.301368 -1.085412 -2.938926 -9.778402 17.074398 2.968843 -5.006277 1.993417 -2.013218 -0.007815 -74.188652 3.267288 25.308214 -58.440342 0.990340 6.128741 13.398438 0.000000 2.529297 -2.003164 1.994041 -0.018257 67.110138 -1.297417 -12.347167 113.302338 -3.374887 2.661554 -3.871006 0.595158 2.451344 -29.141729 3.437698 -8.645720 38.681900 -3.104917 -2.692429 -2.988227 -0.016736 -0.006850 -42.478786 -7.900172 -2.722780 94.897995 -0.478345 4.024385 -0.488195 -0.008598 -0.003302 
5.323185 48.599361 102.380974 0.393943 -7.441232 80.465729 21.384741 -1.509540 -2.368425 -23.318962 3.902166 -0.410184 0.019553 -2.675781 -10.079492 17.447327 3.046726 -5.107238 1.993417 -2.013218 -0.007815 -75.346649 3.796631 25.049309 -58.655910 0.989072 6.130610 13.398438 0.000000 2.529297 -2.003164 1.994041 -0.018257 67.965698 -3.269821 -1.829324 111.563988 -3.387091 2.594562 -3.871006 0.595158 2.451344 -27.939335 2.041515 -8.719831 39.988762 -3.058944 -2.732148 -2.958812 -0.029798 -0.012187 -47.319664 -5.839412 -2.106337 93.538979 -0.419650 4.084542 -0.487828 -0.026595 0.010710 
6.789865 48.400520 102.999741 0.039337 -6.767577 84.857536 21.628304 -1.443461 -2.252004 -23.227882 4.129382 -0.373276 1.016379 -2.206685 -10.713314 17.831440 3.198339 -5.368286 1.993417 -2.013218 -0.007815 -76.371246 4.102252 25.441195 -58.567616 0.990167 6.134169 13.398438 0.000000 2.529297 -2.003164 1.994041 -0.018257 69.820587 -3.951466 7.380675 111.496529 -3.395689 2.603153 -3.871006 0.595158 2.451344 -27.035229 1.191978 -9.086775 41.636311 -2.987976 -2.865320 -2.968622 -0.022189 -0.019625 -51.421120 -3.691123 -0.537818 89.803474 -0.185470 4.073148 -0.467917 -0.026120 -0.010026 
8.223603 48.216518 103.565117 -0.314287 -6.113190 88.998123 21.921165 -1.422397 -1.861461 -23.152679 4.230562 -0.204681 1.836717 -1.669064 -11.508855 18.147867 3.378283 -5.729020 1.993417 -2.013218 -0.007815 -77.363327 4.283933 26.035208 -58.146194 0.991691 6.130736 13.398438 0.000000 2.529297 -2.003164 1.994041 -0.018257 73.269203 -3.622658 13.826860 113.409836 -3.369894 2.667872 -3.871006 0.595158 2.451344 -25.948088 0.342729 -9.694453 43.166782 -2.912999 -2.958346 -2.968749 -0.002788 -0.001141 -54.293579 -1.982442 1.990519 84.331764 0.206086 4.066633 -0.488280 0.002724 -0.009415 
9.607927 48.018349 104.088394 -0.480649 -5.400202 92.798943 22.232775 -1.319820 -1.193804 -23.193592 4.579731 0.062087 2.793602 -1.219253 -12.227654 18.503725 3.556647 -6.056602 1.993417 -2.013218 -0.007815 -78.741333 4.588737 26.105671 -57.360928 0.985587 6.139121 13.398438 0.000000 2.529297 -2.003164 1.994041 -0.018257 77.823067 -2.213008 16.223026 116.318016 -3.334648 2.755863 -3.871006 0.595158 2.451344 -24.677891 -0.281670 -10.409009 44.393246 -2.844610 -3.020681 -2.958984 -0.000953 -0.000390 -55.676914 -0.811276 5.418397 77.560593 0.705515 4.038259 -0.498039 0.009468 -0.017287 
10.902098 47.810875 104.595337 -0.803651 -4.843276 96.903557 22.532068 -0.874968 -0.636523 -23.275799 5.214712 0.212601 4.092071 -0.662370 -12.859997 18.977106 3.722263 -6.328048 1.993417 -2.013218 -0.007815 -80.416603 5.299393 25.331308 -56.714447 0.994995 6.143413 13.398438 0.000000 2.529297 -2.003164 1.994041 -0.018257 81.904976 0.289488 17.011988 118.953522 -3.302933 2.849221 -3.871006 0.595158 2.451344 -24.319597 -0.408884 -11.233920 46.414127 -2.753790 -3.082283 -2.958778 -0.032612 -0.013338 -56.019581 -0.372447 8.733901 70.133347 1.214135 3.890096 -0.488163 0.010065 0.003865 
